<mxfile host="Electron" modified="2023-04-15T06:50:39.276Z" agent="Mozilla/5.0 (Windows NT 10.0; Win64; x64) AppleWebKit/537.36 (KHTML, like Gecko) draw.io/21.1.2 Chrome/106.0.5249.199 Electron/21.4.3 Safari/537.36" etag="PhaRKy4eWyuCDYtUfgwa" version="21.1.2" type="device">
  <diagram name="Sayfa -1" id="TjAz3m3SiwIQFOfm3-uA">
    <mxGraphModel dx="1436" dy="1064" grid="0" gridSize="10" guides="1" tooltips="1" connect="1" arrows="1" fold="1" page="0" pageScale="1" pageWidth="827" pageHeight="1169" math="0" shadow="0">
      <root>
        <mxCell id="0" />
        <mxCell id="1" parent="0" />
        <mxCell id="9LyN6Sd_W5k2G55v31xB-8" style="edgeStyle=none;curved=1;rounded=0;orthogonalLoop=1;jettySize=auto;html=1;entryX=0;entryY=0.5;entryDx=0;entryDy=0;fontSize=12;startSize=8;endSize=8;strokeColor=#f80d0d;" parent="1" source="9LyN6Sd_W5k2G55v31xB-1" target="9LyN6Sd_W5k2G55v31xB-3" edge="1">
          <mxGeometry relative="1" as="geometry" />
        </mxCell>
        <mxCell id="9LyN6Sd_W5k2G55v31xB-9" style="edgeStyle=none;curved=1;rounded=0;orthogonalLoop=1;jettySize=auto;html=1;entryX=0;entryY=0.5;entryDx=0;entryDy=0;fontSize=12;startSize=8;endSize=8;" parent="1" source="9LyN6Sd_W5k2G55v31xB-1" target="9LyN6Sd_W5k2G55v31xB-6" edge="1">
          <mxGeometry relative="1" as="geometry" />
        </mxCell>
        <mxCell id="9LyN6Sd_W5k2G55v31xB-11" style="edgeStyle=none;curved=1;rounded=0;orthogonalLoop=1;jettySize=auto;html=1;entryX=0;entryY=0.5;entryDx=0;entryDy=0;fontSize=12;startSize=8;endSize=8;" parent="1" source="9LyN6Sd_W5k2G55v31xB-1" target="9LyN6Sd_W5k2G55v31xB-7" edge="1">
          <mxGeometry relative="1" as="geometry" />
        </mxCell>
        <mxCell id="9LyN6Sd_W5k2G55v31xB-12" style="edgeStyle=none;curved=1;rounded=0;orthogonalLoop=1;jettySize=auto;html=1;entryX=0;entryY=0.5;entryDx=0;entryDy=0;fontSize=12;startSize=8;endSize=8;" parent="1" source="9LyN6Sd_W5k2G55v31xB-1" target="9LyN6Sd_W5k2G55v31xB-5" edge="1">
          <mxGeometry relative="1" as="geometry" />
        </mxCell>
        <mxCell id="9LyN6Sd_W5k2G55v31xB-1" value="0&lt;br&gt;" style="rounded=0;whiteSpace=wrap;html=1;fontSize=16;" parent="1" vertex="1">
          <mxGeometry x="-305" y="177" width="120" height="60" as="geometry" />
        </mxCell>
        <mxCell id="9LyN6Sd_W5k2G55v31xB-14" style="edgeStyle=none;curved=1;rounded=0;orthogonalLoop=1;jettySize=auto;html=1;entryX=0;entryY=0.5;entryDx=0;entryDy=0;fontSize=12;startSize=8;endSize=8;strokeColor=#e90707;" parent="1" source="9LyN6Sd_W5k2G55v31xB-3" target="9LyN6Sd_W5k2G55v31xB-13" edge="1">
          <mxGeometry relative="1" as="geometry" />
        </mxCell>
        <mxCell id="9LyN6Sd_W5k2G55v31xB-3" value="1&lt;br&gt;(10,16)" style="rounded=0;whiteSpace=wrap;html=1;fontSize=16;fillColor=#dae8fc;strokeColor=#6c8ebf;" parent="1" vertex="1">
          <mxGeometry x="-73" y="24" width="120" height="60" as="geometry" />
        </mxCell>
        <mxCell id="9LyN6Sd_W5k2G55v31xB-17" style="edgeStyle=none;curved=1;rounded=0;orthogonalLoop=1;jettySize=auto;html=1;entryX=0;entryY=0.75;entryDx=0;entryDy=0;fontSize=12;startSize=8;endSize=8;" parent="1" source="9LyN6Sd_W5k2G55v31xB-5" target="9LyN6Sd_W5k2G55v31xB-13" edge="1">
          <mxGeometry relative="1" as="geometry" />
        </mxCell>
        <mxCell id="9LyN6Sd_W5k2G55v31xB-5" value="4&lt;br&gt;(1,06)" style="rounded=0;whiteSpace=wrap;html=1;fontSize=16;fillColor=#dae8fc;strokeColor=#6c8ebf;" parent="1" vertex="1">
          <mxGeometry x="-73" y="308" width="120" height="60" as="geometry" />
        </mxCell>
        <mxCell id="9LyN6Sd_W5k2G55v31xB-15" style="edgeStyle=none;curved=1;rounded=0;orthogonalLoop=1;jettySize=auto;html=1;entryX=0.007;entryY=0.637;entryDx=0;entryDy=0;entryPerimeter=0;fontSize=12;startSize=8;endSize=8;" parent="1" source="9LyN6Sd_W5k2G55v31xB-6" target="9LyN6Sd_W5k2G55v31xB-13" edge="1">
          <mxGeometry relative="1" as="geometry" />
        </mxCell>
        <mxCell id="9LyN6Sd_W5k2G55v31xB-6" value="2&lt;br&gt;(3,91)" style="rounded=0;whiteSpace=wrap;html=1;fontSize=16;fillColor=#dae8fc;strokeColor=#6c8ebf;" parent="1" vertex="1">
          <mxGeometry x="-73" y="111" width="120" height="60" as="geometry" />
        </mxCell>
        <mxCell id="9LyN6Sd_W5k2G55v31xB-16" style="edgeStyle=none;curved=1;rounded=0;orthogonalLoop=1;jettySize=auto;html=1;fontSize=12;startSize=8;endSize=8;" parent="1" source="9LyN6Sd_W5k2G55v31xB-7" edge="1">
          <mxGeometry relative="1" as="geometry">
            <mxPoint x="182.40008544921875" y="197.60000610351562" as="targetPoint" />
          </mxGeometry>
        </mxCell>
        <mxCell id="9LyN6Sd_W5k2G55v31xB-7" value="3&lt;br&gt;(4,15)" style="rounded=0;whiteSpace=wrap;html=1;fontSize=16;fillColor=#dae8fc;strokeColor=#6c8ebf;" parent="1" vertex="1">
          <mxGeometry x="-73" y="209" width="120" height="60" as="geometry" />
        </mxCell>
        <mxCell id="9LyN6Sd_W5k2G55v31xB-20" style="edgeStyle=none;curved=1;rounded=0;orthogonalLoop=1;jettySize=auto;html=1;fontSize=12;startSize=8;endSize=8;strokeColor=#e11414;" parent="1" source="9LyN6Sd_W5k2G55v31xB-13" target="9LyN6Sd_W5k2G55v31xB-18" edge="1">
          <mxGeometry relative="1" as="geometry" />
        </mxCell>
        <mxCell id="9LyN6Sd_W5k2G55v31xB-13" value="5&lt;br&gt;(2,15)" style="rounded=0;whiteSpace=wrap;html=1;fontSize=16;fillColor=#dae8fc;strokeColor=#6c8ebf;" parent="1" vertex="1">
          <mxGeometry x="181" y="154" width="120" height="60" as="geometry" />
        </mxCell>
        <mxCell id="9LyN6Sd_W5k2G55v31xB-21" style="edgeStyle=none;curved=1;rounded=0;orthogonalLoop=1;jettySize=auto;html=1;fontSize=12;startSize=8;endSize=8;strokeColor=#e61919;" parent="1" source="9LyN6Sd_W5k2G55v31xB-18" target="9LyN6Sd_W5k2G55v31xB-19" edge="1">
          <mxGeometry relative="1" as="geometry" />
        </mxCell>
        <mxCell id="9LyN6Sd_W5k2G55v31xB-18" value="6&lt;br&gt;(4,15)" style="rounded=0;whiteSpace=wrap;html=1;fontSize=16;fillColor=#f8cecc;strokeColor=#b85450;" parent="1" vertex="1">
          <mxGeometry x="375" y="156" width="120" height="60" as="geometry" />
        </mxCell>
        <mxCell id="9LyN6Sd_W5k2G55v31xB-23" style="edgeStyle=none;curved=1;rounded=0;orthogonalLoop=1;jettySize=auto;html=1;entryX=0;entryY=0.5;entryDx=0;entryDy=0;fontSize=12;startSize=8;endSize=8;strokeColor=#d90d0d;" parent="1" source="9LyN6Sd_W5k2G55v31xB-19" target="9LyN6Sd_W5k2G55v31xB-22" edge="1">
          <mxGeometry relative="1" as="geometry" />
        </mxCell>
        <mxCell id="9LyN6Sd_W5k2G55v31xB-19" value="7&lt;br&gt;(3,86)" style="rounded=0;whiteSpace=wrap;html=1;fontSize=16;fillColor=#f8cecc;strokeColor=#b85450;" parent="1" vertex="1">
          <mxGeometry x="555" y="156" width="120" height="60" as="geometry" />
        </mxCell>
        <mxCell id="9LyN6Sd_W5k2G55v31xB-26" style="edgeStyle=none;curved=1;rounded=0;orthogonalLoop=1;jettySize=auto;html=1;entryX=0;entryY=0.5;entryDx=0;entryDy=0;fontSize=12;startSize=8;endSize=8;strokeColor=#eb0a0a;" parent="1" source="9LyN6Sd_W5k2G55v31xB-22" target="9LyN6Sd_W5k2G55v31xB-25" edge="1">
          <mxGeometry relative="1" as="geometry" />
        </mxCell>
        <mxCell id="9LyN6Sd_W5k2G55v31xB-29" style="edgeStyle=none;curved=1;rounded=0;orthogonalLoop=1;jettySize=auto;html=1;fontSize=12;startSize=8;endSize=8;" parent="1" source="9LyN6Sd_W5k2G55v31xB-22" target="9LyN6Sd_W5k2G55v31xB-27" edge="1">
          <mxGeometry relative="1" as="geometry" />
        </mxCell>
        <mxCell id="9LyN6Sd_W5k2G55v31xB-30" style="edgeStyle=none;curved=1;rounded=0;orthogonalLoop=1;jettySize=auto;html=1;entryX=0;entryY=0.75;entryDx=0;entryDy=0;fontSize=12;startSize=8;endSize=8;" parent="1" source="9LyN6Sd_W5k2G55v31xB-22" target="9LyN6Sd_W5k2G55v31xB-28" edge="1">
          <mxGeometry relative="1" as="geometry" />
        </mxCell>
        <mxCell id="9LyN6Sd_W5k2G55v31xB-22" value="8&lt;br&gt;(0,98)" style="rounded=0;whiteSpace=wrap;html=1;fontSize=16;fillColor=#fff2cc;strokeColor=#d6b656;" parent="1" vertex="1">
          <mxGeometry x="742" y="156" width="120" height="60" as="geometry" />
        </mxCell>
        <mxCell id="9LyN6Sd_W5k2G55v31xB-25" value="9&lt;br&gt;(4,05)" style="rounded=0;whiteSpace=wrap;html=1;fontSize=16;fillColor=#fff2cc;strokeColor=#d6b656;" parent="1" vertex="1">
          <mxGeometry x="1085" y="15" width="120" height="60" as="geometry" />
        </mxCell>
        <mxCell id="9LyN6Sd_W5k2G55v31xB-32" style="edgeStyle=none;curved=1;rounded=0;orthogonalLoop=1;jettySize=auto;html=1;entryX=0;entryY=0.5;entryDx=0;entryDy=0;fontSize=12;startSize=8;endSize=8;" parent="1" source="9LyN6Sd_W5k2G55v31xB-27" target="9LyN6Sd_W5k2G55v31xB-31" edge="1">
          <mxGeometry relative="1" as="geometry" />
        </mxCell>
        <mxCell id="9LyN6Sd_W5k2G55v31xB-27" value="10&lt;br&gt;(2,05)" style="rounded=0;whiteSpace=wrap;html=1;fontSize=16;fillColor=#e1d5e7;strokeColor=#9673a6;" parent="1" vertex="1">
          <mxGeometry x="972" y="159" width="120" height="60" as="geometry" />
        </mxCell>
        <mxCell id="9LyN6Sd_W5k2G55v31xB-37" style="edgeStyle=none;curved=1;rounded=0;orthogonalLoop=1;jettySize=auto;html=1;entryX=0;entryY=0.5;entryDx=0;entryDy=0;fontSize=12;startSize=8;endSize=8;" parent="1" source="9LyN6Sd_W5k2G55v31xB-28" target="9LyN6Sd_W5k2G55v31xB-31" edge="1">
          <mxGeometry relative="1" as="geometry" />
        </mxCell>
        <mxCell id="9LyN6Sd_W5k2G55v31xB-28" value="11&lt;br&gt;(1,03)" style="rounded=0;whiteSpace=wrap;html=1;fontSize=16;fillColor=#e1d5e7;strokeColor=#9673a6;" parent="1" vertex="1">
          <mxGeometry x="972" y="269" width="120" height="60" as="geometry" />
        </mxCell>
        <mxCell id="9LyN6Sd_W5k2G55v31xB-31" value="12&lt;br&gt;(1,96)" style="rounded=0;whiteSpace=wrap;html=1;fontSize=16;fillColor=#e1d5e7;strokeColor=#9673a6;" parent="1" vertex="1">
          <mxGeometry x="1165" y="209" width="120" height="60" as="geometry" />
        </mxCell>
        <mxCell id="9LyN6Sd_W5k2G55v31xB-35" value="ANALİZ AŞAMASI" style="rounded=0;whiteSpace=wrap;html=1;fontSize=16;fillColor=#fff2cc;gradientColor=#ffd966;strokeColor=#d6b656;" parent="1" vertex="1">
          <mxGeometry x="471" y="-34" width="120" height="60" as="geometry" />
        </mxCell>
        <mxCell id="9LyN6Sd_W5k2G55v31xB-36" value="KRITİK YOL:25,35 GÜN" style="text;html=1;strokeColor=#82b366;fillColor=#d5e8d4;align=center;verticalAlign=middle;whiteSpace=wrap;rounded=0;fontSize=16;gradientColor=#97d077;" parent="1" vertex="1">
          <mxGeometry x="371" y="345" width="300" height="30" as="geometry" />
        </mxCell>
      </root>
    </mxGraphModel>
  </diagram>
</mxfile>
